<svg xmlns="http://www.w3.org/2000/svg" data-name="Layer 1" viewBox="0 0 512 512"><rect width="96.06" height="45.03" x="389.37" y="395.81" fill="#00acea"/><polygon fill="#00efd1" points="485.43 269.19 485.43 395.81 389.37 395.81 112.37 395.81 26.57 395.81 26.57 269.19 94.9 269.19 219.34 269.19 292.66 269.19 417.1 269.19 485.43 269.19"/><path fill="#00acea" d="M485.43,191.56v77.63H417.1V208.08H292.66v61.11H219.34V208.08H94.9v61.11H26.57V191.56A41.03,41.03,0,0,1,67.6,150.53H192.93c10.41,19.06,30.16,37.25,61.26,49.59a6.393,6.393,0,0,0,1.81.36,6.533,6.533,0,0,0,1.81-.36c31.06-12.58,50.76-30.74,61.17-49.65l.11.06H444.4A41.03,41.03,0,0,1,485.43,191.56Z"/><rect width="124.44" height="61.11" x="292.66" y="208.08" fill="#fedb41"/><path fill="#d7443e" d="M327.08,105.52c2.67,13.77.34,29.61-8.1,44.95-10.41,18.91-30.11,37.07-61.17,49.65a6.533,6.533,0,0,1-1.81.36,6.393,6.393,0,0,1-1.81-.36c-31.1-12.34-50.85-30.53-61.26-49.59-8.35-15.3-10.68-31.16-8.02-45.01,3.98-20.98,18.63-34.36,37.62-34.36C233.21,71.16,244.6,75.5,256,84c11.21-8.14,22.79-12.48,33.28-12.48C308.27,71.52,322.92,84.9,327.08,105.52Z"/><rect width="124.44" height="61.11" x="94.9" y="208.08" fill="#fedb41"/><rect width="85.8" height="45.03" x="26.57" y="395.81" fill="#00acea"/><path fill="#083863" d="M444.4,143H331.356c4.692-13,5.976-26.4,3.566-38.827-4.953-24.553-22.869-40.535-45.642-40.535-10.695,0-22.082,3.645-33.212,10.705C244.8,66.957,233.539,63.19,222.53,63.19c-22.918,0-40.77,16.262-45.477,41.071-2.38,12.4-1.115,25.739,3.521,38.739H67.6A48.32,48.32,0,0,0,19,191.56V440.84c0,4.418,3.152,8.16,7.57,8.16h85.8c4.418,0,7.63-3.742,7.63-8.16V404H381v36.84a8.462,8.462,0,0,0,8.37,8.16h96.06c4.418,0,7.57-3.742,7.57-8.16V191.56A48.32,48.32,0,0,0,444.4,143ZM192.77,107.011c3.259-17.179,14.662-27.851,29.76-27.851,8.894,0,18.814,3.891,28.688,11.254a8,8,0,0,0,9.483.059c9.868-7.165,19.75-10.953,28.579-10.953,15.046,0,26.526,10.569,29.946,27.523,2.44,12.58-.137,26.633-7.255,39.571-7.328,13.31-22.98,31.953-55.983,45.608-33.053-13.4-48.711-32.114-56.036-45.525C192.891,133.758,190.339,119.67,192.77,107.011ZM67.6,159H188.334c9.511,15,27.867,34.888,62.905,48.791.14.056.282-.01.425.037a13.655,13.655,0,0,0,4.336.711,14.054,14.054,0,0,0,4.294-.785c.175-.057.349.1.519.031C295.7,193.657,314.011,174,323.521,159H444.4A32.3,32.3,0,0,1,477,191.56V261H425V208.08a7.984,7.984,0,0,0-7.9-8.08H292.66a7.786,7.786,0,0,0-7.66,8.08V261H227V208.08a7.786,7.786,0,0,0-7.66-8.08H94.9a7.984,7.984,0,0,0-7.9,8.08V261H35V191.56A32.3,32.3,0,0,1,67.6,159ZM211,261H103V216H211Zm266,16V388H35V277Zm-68-16H301V216H409ZM104,433H35V404h69Zm293,0V404h80v29Z"/></svg>