<svg xmlns="http://www.w3.org/2000/svg" data-name="Layer 1" viewBox="0 0 512 512"><rect width="452" height="452" x="30" y="52.5" fill="#f2f2f2" rx="30"/><path fill="#dedede" d="M452,52.5H422a30,30,0,0,1,30,30v392a30,30,0,0,1-30,30h30a30,30,0,0,0,30-30V82.5A30,30,0,0,0,452,52.5Z"/><path fill="#f66" d="M452,52.5H60a29.99993,29.99993,0,0,0-30,30v65.96631H482V82.5A30,30,0,0,0,452,52.5Z"/><path fill="#ff4e4e" d="M452,52.5H422a30,30,0,0,1,30,30v65.96631h30V82.5A30,30,0,0,0,452,52.5Z"/><rect width="39" height="91.78" x="109" y="7.5" fill="#676e87" rx="19.5"/><path fill="#595f74" d="M128.5,7.5h0A19.43676,19.43676,0,0,0,121,8.99927,19.502,19.502,0,0,1,133,27V79.77979a19.5017,19.5017,0,0,1-12,18.00073,19.43233,19.43233,0,0,0,7.5,1.49927h0a19.49988,19.49988,0,0,0,19.5-19.5V27A19.5,19.5,0,0,0,128.5,7.5Z"/><rect width="39" height="91.78" x="364" y="7.5" fill="#676e87" rx="19.5"/><path fill="#595f74" d="M383.50006,7.5H383.5a19.43646,19.43646,0,0,0-7.49994,1.49927A19.50208,19.50208,0,0,1,388,27V79.77979a19.50183,19.50183,0,0,1-11.99994,18.00073A19.432,19.432,0,0,0,383.5,99.27979h.00006A19.49982,19.49982,0,0,0,403,79.77979V27A19.5,19.5,0,0,0,383.50006,7.5Z"/><circle cx="331.132" cy="295.8" r="30" fill="#3b3f4d"/><path fill="#313440" d="M452,45H410.5V27a27,27,0,0,0-54,0V45h-201V27a27,27,0,0,0-54,0V45H60A37.54227,37.54227,0,0,0,22.5,82.5v392A37.54227,37.54227,0,0,0,60,512H452a37.54227,37.54227,0,0,0,37.5-37.5V82.5A37.54227,37.54227,0,0,0,452,45ZM371.5,27a12,12,0,0,1,24,0V79.78027a12,12,0,0,1-24,0Zm-255,0a12,12,0,0,1,24,0V79.78027a12,12,0,0,1-24,0Zm358,447.5A22.52554,22.52554,0,0,1,452,497H60a22.52554,22.52554,0,0,1-22.5-22.5V155.9668h437Zm0-333.5332H37.5V82.5A22.52554,22.52554,0,0,1,60,60h41.5V79.78027a27,27,0,0,0,54,0V60h201V79.78027a27,27,0,0,0,54,0V60H452a22.52554,22.52554,0,0,1,22.5,22.5ZM437,466.99414a7.5,7.5,0,1,0-7.5-7.5A7.49987,7.49987,0,0,0,437,466.99414ZM338.63239,295.7998a7.5,7.5,0,1,0-7.5,7.5A7.5,7.5,0,0,0,338.63239,295.7998ZM204,352.39282v32.95777a67.31616,67.31616,0,1,0,134.63232,0V332.54517a37.5,37.5,0,1,0-15,0v52.80542a52.31616,52.31616,0,1,1-104.63232,0V352.39282a70.09569,70.09569,0,0,0,62.5-69.593v-56.5a13.51508,13.51508,0,0,0-13.5-13.5H254.61145a15.00011,15.00011,0,1,0-.00012,15H266.5v55a55,55,0,0,1-110,0v-55h12.15771a14.9999,14.9999,0,1,0-.00012-15H155a13.51508,13.51508,0,0,0-13.5,13.5v56.5A70.09569,70.09569,0,0,0,204,352.39282Zm104.63232-56.593a22.5,22.5,0,1,1,22.5,22.5A22.52555,22.52555,0,0,1,308.63232,295.7998ZM377,466.99414a7.5,7.5,0,1,0-7.5-7.5A7.49987,7.49987,0,0,0,377,466.99414Zm30,0a7.5,7.5,0,1,0-7.5-7.5A7.49987,7.49987,0,0,0,407,466.99414Z"/></svg>