<svg xmlns="http://www.w3.org/2000/svg" viewBox="0 0 468 468"><path fill="#e0e0e0" d="M94 5h280v418.493H94z"/><path fill="#c9c9c9" d="M94 5h20v418.493H94z"/><path fill="#ed4848" d="M5 423.493h458V463H5z"/><path fill="#cc4040" d="M5 423.493h20V463H5z"/><path fill="#e0e0e0" d="M5 145.312h144.254v278.18H5z"/><path fill="#c9c9c9" d="M5 145.313h18v278.18H5z"/><path fill="#e0e0e0" d="M35.127 214h26.667v30.403H35.127z"/><path fill="#333" d="M61.794 249.402H35.127a5 5 0 0 1-5-5V214a5 5 0 0 1 5-5h26.667a5 5 0 0 1 5 5v30.402a5 5 0 0 1-5 5zm-21.667-10h16.667V219H40.127v20.402z"/><path fill="#e0e0e0" d="M92.46 214h26.667v30.403H92.46z"/><path fill="#333" d="M119.127 249.402H92.461a5 5 0 0 1-5-5V214a5 5 0 0 1 5-5h26.666a5 5 0 0 1 5 5v30.402a5 5 0 0 1-5 5zm-21.666-10h16.666V219H97.461v20.402z"/><path fill="#e0e0e0" d="M92.46 274h26.667v30.403H92.46z"/><path fill="#333" d="M119.127 309.402H92.461a5 5 0 0 1-5-5V274a5 5 0 0 1 5-5h26.666a5 5 0 0 1 5 5v30.402a5 5 0 0 1-5 5zm-21.666-10h16.666V279H97.461v20.402z"/><path fill="#e0e0e0" d="M35.127 274h26.667v30.403H35.127z"/><path fill="#333" d="M61.794 309.402H35.127a5 5 0 0 1-5-5V274a5 5 0 0 1 5-5h26.667a5 5 0 0 1 5 5v30.402a5 5 0 0 1-5 5zm-21.667-10h16.667V279H40.127v20.402z"/><path fill="#ed4848" d="M5 145.312h144.254v37.857H5z"/><path fill="#cc4040" d="M5 145.313h18v37.857H5z"/><path fill="#00aae5" d="M47.127 355.881h30v67.612h-30z"/><path fill="#29b6f6" d="M77.127 355.881h30v67.612h-30z"/><path fill="#e0e0e0" d="M318.746 145.312H463v278.18H318.746z"/><path fill="#c9c9c9" d="M318.746 145.313h18v278.18h-18z"/><path fill="#e0e0e0" d="M348.873 214h26.667v30.403h-26.667z"/><path fill="#333" d="M375.539 249.402h-26.666a5 5 0 0 1-5-5V214a5 5 0 0 1 5-5h26.666a5 5 0 0 1 5 5v30.402a5 5 0 0 1-5 5zm-21.666-10h16.666V219h-16.666v20.402z"/><path fill="#e0e0e0" d="M406.206 214h26.667v30.403h-26.667z"/><path fill="#333" d="M432.873 249.402h-26.667a5 5 0 0 1-5-5V214a5 5 0 0 1 5-5h26.667a5 5 0 0 1 5 5v30.402a5 5 0 0 1-5 5zm-21.667-10h16.667V219h-16.667v20.402z"/><path fill="#e0e0e0" d="M406.206 274h26.667v30.403h-26.667z"/><path fill="#333" d="M432.873 309.402h-26.667a5 5 0 0 1-5-5V274a5 5 0 0 1 5-5h26.667a5 5 0 0 1 5 5v30.402a5 5 0 0 1-5 5zm-21.667-10h16.667V279h-16.667v20.402z"/><path fill="#e0e0e0" d="M348.873 274h26.667v30.403h-26.667z"/><path fill="#333" d="M375.539 309.402h-26.666a5 5 0 0 1-5-5V274a5 5 0 0 1 5-5h26.666a5 5 0 0 1 5 5v30.402a5 5 0 0 1-5 5zm-21.666-10h16.666V279h-16.666v20.402z"/><path fill="#ed4848" d="M318.746 145.312H463v37.857H318.746z"/><path fill="#cc4040" d="M318.746 145.313h18v37.857h-18z"/><path fill="#00aae5" d="M360.873 355.881h30v67.612h-30z"/><path fill="#29b6f6" d="M390.873 355.881h30v67.612h-30z"/><path fill="#ed4848" d="M94 5h280v39.508H94z"/><path fill="#cc4040" d="M94 5h20v39.509H94z"/><path fill="#29b6f6" d="M194.169 308.593h79.661v114.9h-79.661z"/><path fill="#00aae5" d="M194.169 308.593H234v114.9h-39.831z"/><ellipse cx="234" cy="131.612" fill="#ed4848" rx="52.585" ry="52.612"/><path fill="#cc4040" d="M198.415 131.612c0-26.16 19.087-47.851 44.085-51.918A52.92 52.92 0 0 0 234 79c-29.042 0-52.585 23.555-52.585 52.612s23.543 52.612 52.585 52.612a52.92 52.92 0 0 0 8.5-.694c-24.999-4.067-44.085-25.758-44.085-51.918z"/><path fill="#333" d="M234 189.224c-31.753 0-57.585-25.845-57.585-57.612C176.415 99.845 202.247 74 234 74s57.585 25.845 57.585 57.611c0 31.768-25.832 57.613-57.585 57.613zM234 84c-26.238 0-47.585 21.358-47.585 47.611 0 26.254 21.347 47.612 47.585 47.612s47.585-21.358 47.585-47.612C281.585 105.358 260.238 84 234 84z"/><path fill="#333" d="M259 126.611h-20V106.6c0-2.762-2.238-5-5-5s-5 2.238-5 5v20.012h-20c-2.762 0-5 2.238-5 5s2.238 5 5 5h20v20.012c0 2.762 2.238 5 5 5s5-2.238 5-5v-20.012h20a5 5 0 0 0 0-10.001z"/><path fill="#333" d="M463 140.313h-84V5a5 5 0 0 0-5-5H94a5 5 0 0 0-5 5v135.313H5a5 5 0 0 0-5 5V463a5 5 0 0 0 5 5h458a5 5 0 0 0 5-5V145.313a5 5 0 0 0-5-5zM99 10h270v29.509H99V10zm0 39.509h270v90.804h-50.254a5 5 0 0 0-5 5v273.181H278.83v-109.9a5 5 0 0 0-5-5h-79.66a5 5 0 0 0-5 5v109.9h-34.916V145.313a5 5 0 0 0-5-5H99V49.509zm169.83 264.084v104.9H239v-104.9h29.83zm-39.83.001v104.899h-29.83V313.594H229zM10 150.313h134.254v27.857H10v-27.857zm0 37.857h134.254v230.323h-32.127v-62.612a5 5 0 0 0-5-5h-60a5 5 0 0 0-5 5v62.612H10V188.17zm72.127 172.711h20v57.612h-20v-57.612zm-10 57.612h-20v-57.612h20v57.612zM458 458H10v-29.507h448V458zm-92.127-39.507v-57.612h20v57.612h-20zm30 0v-57.612h20v57.612h-20zm62.127 0h-32.127v-62.612a5 5 0 0 0-5-5h-60a5 5 0 0 0-5 5v62.612h-32.127V188.17H458v230.323zm0-240.323H323.746v-27.857H458v27.857z"/></svg>