<svg xmlns="http://www.w3.org/2000/svg" width="32" height="32"><path style="isolation:auto;mix-blend-mode:normal" fill="#e9eded" d="M134.5 1533.668h18v13h-18z" color="#000" overflow="visible" transform="translate(-133.504 -1524.673)"/><path style="line-height:normal;text-indent:0;text-align:start;text-decoration-line:none;text-decoration-style:solid;text-decoration-color:#000;text-transform:none;block-progression:tb;isolation:auto;mix-blend-mode:normal" fill="#576d7e" fill-rule="evenodd" d="M140 1535.168v8h1v-8h-1zm4 0v10h1v-10h-1zm-6 0v10h1v-10h-1zm4 0v8h1v-8h-1zm4 0v8h1v-8h-1zm2 0v8h1v-8h-1zm2 0v8h1v-8h-1zm-10 9v1h1v-1h-1zm2 0v1h1v-1h-1zm4 0v1h1v-1h-1zm2 0v1h1v-1h-1z" color="#000" font-family="sans-serif" font-weight="400" overflow="visible" transform="translate(-133.504 -1524.673)"/><path style="line-height:normal;text-indent:0;text-align:start;text-decoration-line:none;text-decoration-style:solid;text-decoration-color:#000;text-transform:none;block-progression:tb;isolation:auto;mix-blend-mode:normal" fill-rule="evenodd" d="M150 1544.168v1h1v-1h-1z" color="#000" font-family="sans-serif" font-weight="400" overflow="visible" transform="translate(-133.504 -1524.673)"/><path style="line-height:normal;text-indent:0;text-align:start;text-decoration-line:none;text-decoration-style:solid;text-decoration-color:#000;text-transform:none;block-progression:tb;isolation:auto;mix-blend-mode:normal" fill="#576d7e" fill-rule="evenodd" d="M136 1535.168v10h1v-10h-1z" color="#000" font-family="sans-serif" font-weight="400" overflow="visible" transform="translate(-133.504 -1524.673)"/><path fill="#25b19c" d="m24.647 18.665 1.714 1.72 1.073 1.076.91.913.772.775 1.484 1.488c.537.539.533 1.41-.01 1.954a1.374 1.374 0 0 1-1.946.01l-5.953-5.973"/><path fill="#f05542" d="m23.443 16.467 1.979 1.988-2.976 2.983-1.977-1.986"/><path style="line-height:normal;text-indent:0;text-align:start;text-decoration-line:none;text-decoration-style:solid;text-decoration-color:#000;text-transform:none;block-progression:tb;isolation:auto;mix-blend-mode:normal" fill="#2b4255" d="M146.245 1533.438c-2.681 2.69-2.677 7.07.008 9.763 2.686 2.694 7.052 2.7 9.733.01 2.682-2.69 2.676-7.07-.01-9.764-2.685-2.694-7.05-2.699-9.732-.01zm.706.708a5.86 5.86 0 0 1 8.32.01 5.91 5.91 0 0 1 .01 8.348 5.863 5.863 0 0 1-8.321-.01 5.907 5.907 0 0 1-.008-8.347z" color="#000" font-family="sans-serif" font-weight="400" overflow="visible" transform="translate(-133.504 -1524.673)"/></svg>