<svg xmlns="http://www.w3.org/2000/svg" width="64" height="64"><path fill="#d3d5e7" d="M37.242 20.333h.808c.448 0 .808.361.808.809v.808c0 .447-.36.808-.808.808h-.808a.806.806 0 0 1-.808-.808v-.808c0-.448.36-.809.808-.809zm-12.12 0h.807c.448 0 .808.361.808.809v.808c0 .447-.36.808-.808.808h-.808a.806.806 0 0 1-.808-.808v-.808c0-.448.36-.809.808-.809z"/><path fill="#ad7759" d="M28.354 15.483a2.42 2.42 0 0 0-2.424 2.426v3.233c0 .367.087.712.232 1.023h1.725a1.301 1.301 0 0 1-.342-.863v-2.746c0-.786.737-1.418 1.662-1.45.762.03.846.803 2.38.803 1.532.002 1.617-.77 2.378-.802.926.03 1.66.663 1.66 1.449v2.746c0 .325-.13.621-.341.863h1.726a2.41 2.41 0 0 0 .233-1.023v-3.233a2.42 2.42 0 0 0-2.424-2.426h-6.465z"/><path fill="#7f6773" d="M34.063 15.483a2.42 2.42 0 0 1 2.424 2.426v3.233c0 .367-.088.712-.233 1.023h.756a2.41 2.41 0 0 0 .233-1.023v-3.233a2.42 2.42 0 0 0-2.424-2.426h-.756zm-5.611 1.624c-.926.03-1.663.663-1.663 1.449v2.746c0 .325.13.622.342.863h.756a1.301 1.301 0 0 1-.342-.863v-2.746c0-.656.515-1.2 1.223-1.381a1.037 1.037 0 0 0-.316-.069zm4.757 0c-.691.03-.836.66-2.002.777.12.011.237.026.38.026 1.29.001 1.557-.542 2.062-.734a1.918 1.918 0 0 0-.44-.068z"/><path fill="#ffd039" d="M16.232 21.142H46.94a3.225 3.225 0 0 1 3.233 3.232v19.394A3.225 3.225 0 0 1 46.939 47H16.232A3.225 3.225 0 0 1 13 43.768V24.374a3.225 3.225 0 0 1 3.232-3.232z"/><path fill="#ad7759" d="M13 42.152v1.616A3.225 3.225 0 0 0 16.232 47h1.616v-4.848zm37.172 0v1.616A3.225 3.225 0 0 1 46.939 47h-1.616v-4.848zm0-16.162v-1.616a3.225 3.225 0 0 0-3.233-3.232h-1.616v4.848z"/><path fill="#f5ba00" d="M46.46 21.142c.056.333.091.674.091 1.023v17c0 3.324-2.676 6-6 6H13.327a3.219 3.219 0 0 0 2.906 1.836H46.94a3.225 3.225 0 0 0 3.232-3.232V24.374a3.225 3.225 0 0 0-3.232-3.232h-.48z"/><path fill="#7f6773" d="M46.46 21.142c.056.333.091.674.091 1.023v3.824h3.621v-1.615a3.225 3.225 0 0 0-3.232-3.232h-.48zm-.704 21.01c-.13.226-.276.441-.433.648V47h1.617a3.225 3.225 0 0 0 3.232-3.232V42.15h-4.416zm-32.428 3.013.03.055c.108.213.24.41.389.594.034.042.066.086.103.127a3.234 3.234 0 0 0 .4.367c.078.06.154.124.237.177l.006.004c.137.088.281.166.432.232.052.023.108.04.162.061.129.05.261.09.398.123.055.012.11.027.166.038.19.034.383.059.582.059h1.615v-1.836h-4.52z"/><path fill="#ad7759" d="M13 25.99v-1.616a3.225 3.225 0 0 1 3.232-3.232h1.616v4.848z"/><path fill="#ffd039" d="M16.232 23.566a.808.808 0 0 1-.808.808.808.808 0 0 1-.808-.808.808.808 0 0 1 .808-.808.808.808 0 0 1 .808.808zm0 21.01a.808.808 0 0 1-.808.808.808.808 0 0 1-.808-.808.808.808 0 0 1 .808-.808.808.808 0 0 1 .808.808zm32.323 0a.808.808 0 0 1-.808.808.808.808 0 0 1-.808-.808.808.808 0 0 1 .808-.808.808.808 0 0 1 .808.808zm0-21.01a.808.808 0 0 1-.808.808.808.808 0 0 1-.808-.808.808.808 0 0 1 .808-.808.808.808 0 0 1 .808.808z"/><path fill="gray" d="M26.737 27.606a1.212 1.212 0 0 1-1.212 1.212 1.212 1.212 0 0 1-1.212-1.212 1.212 1.212 0 0 1 1.212-1.212 1.212 1.212 0 0 1 1.212 1.212z"/><path fill="#fff" d="M27.545 27.606a2.02 2.02 0 0 1-2.02 2.02 2.02 2.02 0 0 1-2.02-2.02 2.02 2.02 0 0 1 2.02-2.02 2.02 2.02 0 0 1 2.02 2.02z"/><path fill="#ff5751" d="M26.737 27.606a1.212 1.212 0 0 1-1.212 1.212 1.212 1.212 0 0 1-1.212-1.212 1.212 1.212 0 0 1 1.212-1.212 1.212 1.212 0 0 1 1.212 1.212z"/><path fill="#70b489" d="M15.424 32.455h3.232v3.232h-3.232z"/><path fill="#fff" d="m32.369 35.687 4.898 2.828-1.616 2.8-4.898-2.829z"/><path fill="#70b489" d="m36.705 29.222 4.51.271-2.021 3.5z"/><path fill="#3b8eff" d="m21.889 41.883 4.509.27-2.02 3.5z"/><path fill="#ad7759" d="M20.273 21.142h2.424V47h-2.424zm20.202 0h2.424V47h-2.424z"/><path fill="#ff5751" d="M48.555 30.839v5.656h-3.232V30.84z"/><path style="line-height:normal;text-indent:0;text-align:start;text-decoration-line:none;text-decoration-style:solid;text-decoration-color:#000;text-transform:none;isolation:auto;mix-blend-mode:normal" fill="#d3d5e7" fill-rule="evenodd" d="M90.493 289.904h.264v-.215h-.264zm0 .428h.264v-.215h-.264zm0 .428h.264v-.215h-.264zm0 .426h.264v-.213h-.264zm0 .427h.264v-.213h-.264zm0 .428h.264v-.213h-.264zm0 .428h.264v-.213h-.264zm0 .428h.264v-.213h-.264zm0 .427h.264v-.213h-.264zm0 .428h.264v-.213h-.264zm0 .428h.264v-.213h-.264zm0 .427h.264v-.212h-.264zm0 .428h.264v-.215h-.264zm0 .428h.264v-.215h-.264zm0 .428h.264v-.215h-.264zm0 .427h.264v-.214h-.264zm5.344-6.414h.266v-.215h-.266zm0 .428h.266v-.215h-.266zm0 .428h.266v-.215h-.266zm0 .426h.266v-.213h-.266zm0 .427h.266v-.213h-.266zm0 .428h.266v-.213h-.266zm0 .428h.266v-.213h-.266zm0 .428h.266v-.213h-.266zm0 .427h.266v-.213h-.266zm0 .428h.266v-.213h-.266zm0 .428h.266v-.213h-.266zm0 .427h.266v-.212h-.266zm0 .428h.266v-.215h-.266zm0 .428h.266v-.215h-.266zm0 .428h.266v-.215h-.266zm0 .427h.266v-.214h-.266z" color="#000" font-family="sans-serif" font-weight="400" overflow="visible" transform="translate(-321.035 -1073.75) scale(3.77953)"/><path fill="#7f6773" d="M42.899 44.69a6.007 6.007 0 0 1-2.348.475h-.076v1.836h2.424v-2.31zm-22.627.475v1.836h2.426v-1.836h-2.426z"/><path style="line-height:normal;text-indent:0;text-align:start;text-decoration-line:none;text-decoration-style:solid;text-decoration-color:#000;text-transform:none;isolation:auto;mix-blend-mode:normal" fill="#b1b4d4" fill-rule="evenodd" d="M90.493 296.103v.215h.264v-.215zm5.344 0v.215h.266v-.215z" color="#000" font-family="sans-serif" font-weight="400" overflow="visible" transform="translate(-321.035 -1073.75) scale(3.77953)"/><path fill="#d34f5c" d="M46.551 30.839v5.656h2.004V30.84h-2.004z"/><path fill="#4d88e7" d="m24.055 45.165.322.488.282-.488h-.604z"/><path fill="#f5ba00" d="M14.871 45.165a.808.808 0 0 0 .553.219.808.808 0 0 0 .551-.219h-1.104z"/><path style="line-height:normal;text-indent:0;text-align:start;text-decoration-line:none;text-decoration-style:solid;text-decoration-color:#000;text-transform:none;block-progression:tb;isolation:auto;mix-blend-mode:normal" fill="#fff" d="M88.498 291.549a.132.132 0 0 0-.117.135v1.586a.132.132 0 1 0 .264 0v-1.586a.132.132 0 0 0-.147-.135zm0 2.379a.132.132 0 0 0-.117.134v.53a.132.132 0 1 0 .264 0v-.53a.132.132 0 0 0-.147-.134z" color="#000" font-family="sans-serif" font-weight="400" opacity=".3" overflow="visible" transform="translate(-321.035 -1073.75) scale(3.77953)"/></svg>