<svg xmlns="http://www.w3.org/2000/svg" width="64" height="64"><path fill="#FFF" d="M23.5 46.5h-12v-28l4.5-1h3l4.5 1z"/><path fill="#84FFFF" d="M13 19v27.5h10.5V18.667l-3-.667h-3z"/><path fill="#ECEFF1" d="M13 38.5h10.5v8H13z"/><path fill="#37474F" d="M17 38h6.5v1H17zM11.5 22H15v1h-3.5zM11.5 26H15v1h-3.5zM11.5 30H15v1h-3.5zM11.5 34H15v1h-3.5zM11.5 42H15v1h-3.5zM11.5 38H15v1h-3.5z"/><path fill="#84FFFF" d="M19 17.5h-3l.5-5h2z"/><path fill="#37474F" d="M19.552 18h-4.104l.6-6h2.905l.599 6zm-2.999-1h1.895l-.4-4h-1.095l-.4 4z"/><path fill="#FFF" d="M24.5 48.5h-14a1 1 0 0 1 0-2h14a1 1 0 0 1 0 2z"/><path fill="#37474F" d="M24.5 49h-14c-.827 0-1.5-.673-1.5-1.5s.673-1.5 1.5-1.5h14c.827 0 1.5.673 1.5 1.5s-.673 1.5-1.5 1.5zm-14-2a.5.5 0 0 0 0 1h14a.5.5 0 0 0 0-1h-14z"/><path fill="#CFD8DC" d="M14.5 48.5h6v8h-6z"/><path fill="#37474F" d="M21 57h-7v-9h7v9zm-6-1h5v-7h-5v7z"/><path fill="#FFF" d="M22.5 58.5h-10a1 1 0 0 1 0-2h10a1 1 0 0 1 0 2z"/><path fill="#37474F" d="M22.5 59h-10c-.827 0-1.5-.673-1.5-1.5s.673-1.5 1.5-1.5h10c.827 0 1.5.673 1.5 1.5s-.673 1.5-1.5 1.5zm-10-2a.5.5 0 0 0 0 1h10a.5.5 0 0 0 0-1h-10z"/><path fill="#FFF" d="M17.5 12.5V4v8.5z"/><path fill="#37474F" d="M17 4h1v8.5h-1z"/><path fill="#FFF" d="M32 55.5v-23c0-1.604.426-2.978 1.5-3.615V28.5a4 4 0 0 0-4 4v23a3 3 0 0 0 3 3H35a3 3 0 0 1-3-3z"/><path fill="#84FFFF" d="M47.5 28.5v-3h-14v3.385c-1.074.637-1.5 2.011-1.5 3.615v23a3 3 0 0 0 3 3h13.5a3 3 0 0 0 3-3v-23a4 4 0 0 0-4-4z"/><path fill="#18FFFF" d="M49 55.5v-23c0-1.604-.426-2.978-1.5-3.615V28.5a4 4 0 0 1 4 4v23a3 3 0 0 1-3 3H46a3 3 0 0 0 3-3z"/><path fill="#37474F" d="M48.5 59h-16c-1.93 0-3.5-1.57-3.5-3.5v-23a4.505 4.505 0 0 1 4-4.472V25h15v3.028c2.247.25 4 2.16 4 4.472v23c0 1.93-1.57 3.5-3.5 3.5zm-15-30c-1.93 0-3.5 1.57-3.5 3.5v23c0 1.378 1.122 2.5 2.5 2.5h16c1.378 0 2.5-1.122 2.5-2.5v-23c0-1.93-1.57-3.5-3.5-3.5H47v-3H34v3h-.5z"/><path fill="#FFF" d="M48.5 19.5h-16a2 2 0 0 0-2 2v2a2 2 0 0 0 2 2h16a2 2 0 0 0 2-2v-2a2 2 0 0 0-2-2z"/><path fill="#FFF" d="M48.5 19.5h-16a2 2 0 0 0-2 2v2a2 2 0 0 0 2 2h16a2 2 0 0 0 2-2v-2a2 2 0 0 0-2-2z"/><path fill="#FFE57F" d="M50.5 23.5v-2a2 2 0 0 0-2-2H34a2 2 0 0 0-2 2v2a2 2 0 0 0 2 2h14.5a2 2 0 0 0 2-2z"/><path fill="#FFD740" d="M50.5 23.5v-2a2 2 0 0 0-2-2H47a2 2 0 0 1 2 2v2a2 2 0 0 1-2 2h1.5a2 2 0 0 0 2-2z"/><path fill="#37474F" d="M48.5 26h-16a2.503 2.503 0 0 1-2.5-2.5v-2c0-1.378 1.122-2.5 2.5-2.5h16c1.378 0 2.5 1.122 2.5 2.5v2c0 1.378-1.122 2.5-2.5 2.5zm-16-6c-.827 0-1.5.673-1.5 1.5v2c0 .827.673 1.5 1.5 1.5h16c.827 0 1.5-.673 1.5-1.5v-2c0-.827-.673-1.5-1.5-1.5h-16z"/><path fill="#FFF" d="M29.5 35.5h22v17h-22z"/><path fill="#ECEFF1" d="M32 35.5h19.5v17H32z"/><path fill="#CFD8DC" d="M49 35.5h2.5v17H49z"/><path fill="#37474F" d="M52 53H29V35h23v18zm-22-1h21V36H30v16z"/><path fill="#FFF" d="M58 58.5h1-1z"/><path fill="#37474F" d="M58 58h1v1h-1z"/><path fill="#FFF" d="M19 58.5h38-38z"/><path fill="#37474F" d="M19 58h38v1H19zM24 47H11V18.099L16 17l3.108.012L24 18.099V47zm-12-1h11V18.901L18.945 18h-2.891L12 18.901V46z"/><path fill="#18FFFF" d="M34 26h13v1H34z"/><circle cx="41" cy="44" r="5" fill="#B2FF59"/><path fill="#37474F" d="M41 49.5c-3.033 0-5.5-2.467-5.5-5.5s2.467-5.5 5.5-5.5c.996 0 1.972.269 2.822.779l-.514.857A4.494 4.494 0 0 0 41 39.5c-2.481 0-4.5 2.019-4.5 4.5s2.019 4.5 4.5 4.5a4.505 4.505 0 0 0 4.293-5.854l.953-.301A5.506 5.506 0 0 1 41 49.5z"/><path fill="#37474F" d="m40.932 46.168-2.382-2.775.759-.652 1.611 1.878 4.079-4.905.769.64z"/></svg>