<svg xmlns="http://www.w3.org/2000/svg" viewBox="0 0 64 64"><g data-name="Glyph"><path d="M5.5 12a3.492 3.492 0 0 0-.5 6.95V48a3.009 3.009 0 0 0 3 3h1v2a3.009 3.009 0 0 0 3 3v5a1 1 0 0 0 2 0v-5a3.009 3.009 0 0 0 3-3v-2h1a3.009 3.009 0 0 0 3-3V18.95a3.492 3.492 0 0 0-.5-6.95H17V9a3.573 3.573 0 0 0 4-3.5A3.5 3.5 0 0 0 17.5 2h-9A3.5 3.5 0 0 0 5 5.5 3.573 3.573 0 0 0 9 9v3ZM19 19v29a1 1 0 0 1-1 1H8a1 1 0 0 1-1-1V19Z"/><path d="M10 48h6a2.006 2.006 0 0 0 2-2v-3a1 1 0 0 1-1 1h-2a1 1 0 0 1 0-2h2a1 1 0 0 1 1 1v-7a1 1 0 0 1-1 1h-2a1 1 0 0 1 0-2h2a1 1 0 0 1 1 1v-7a1 1 0 0 1-1 1h-2a1 1 0 0 1 0-2h2a1 1 0 0 1 1 1v-3.26a.978.978 0 0 0-.68-.94c-2.86-1.01-5.4.86-8.16.46a1.008 1.008 0 0 0-1.16.99V46a2.006 2.006 0 0 0 2 2zm5-25h2a1 1 0 0 0 0-2h-2a1 1 0 0 0 0 2zM59 8H36a1.033 1.033 0 0 0-.71.29l-9 9A1.033 1.033 0 0 0 26 18v35a3.009 3.009 0 0 0 3 3h30a3.009 3.009 0 0 0 3-3V11a3.009 3.009 0 0 0-3-3zm1 45a1 1 0 0 1-1 1H29a1 1 0 0 1-1-1V19h4a5 5 0 0 0 5-5v-4h22a1 1 0 0 1 1 1z"/><rect width="7.38" height="17.69" x="40.31" y="33.81" rx="1"/><rect width="7.38" height="9.62" x="30" y="41.88" rx="1"/><rect width="7.38" height="23.07" x="50.62" y="28.43" rx="1"/><path d="M57 13H45a1 1 0 0 0 0 2h12a1 1 0 0 0 0-2Z"/><circle cx="41" cy="14" r="1"/><path d="M31 37a1.024 1.024 0 0 0 .71-.29l9.29-9.3 3.29 3.3a1 1 0 0 0 1.38.03l7.25-6.59.79.95a1.012 1.012 0 0 0 1.71-.3l1.65-4.55a1.008 1.008 0 0 0-1.11-1.33l-4.77.84a1.012 1.012 0 0 0-.59 1.63l1.03 1.23-6.6 6-3.32-3.33a1.008 1.008 0 0 0-1.42 0l-10 10a1.008 1.008 0 0 0 0 1.42A1.024 1.024 0 0 0 31 37Z"/></g></svg>